0
SECTION
2
HEADER
9
$INSUNITS
70
4
9
$ACADVER
1
AC1014
9
$HANDSEED
5
FFFF
0
ENDSEC
0
SECTION
2
TABLES
0
TABLE
2
VPORT
5
8
100
AcDbSymbolTable
0
ENDTAB
0
TABLE
2
LTYPE
5
5
100
AcDbSymbolTable
0
LTYPE
5
14
100
AcDbSymbolTableRecord
100
AcDbLinetypeTableRecord
2
BYBLOCK
70
0
0
LTYPE
5
15
100
AcDbSymbolTableRecord
100
AcDbLinetypeTableRecord
2
BYLAYER
70
0
0
ENDTAB
0
TABLE
2
LAYER
5
2
100
AcDbSymbolTable
70
2
0
LAYER
5
50
100
AcDbSymbolTableRecord
100
AcDbLayerTableRecord
2
0
70
0
6
CONTINUOUS
0
ENDTAB
0
TABLE
2
STYLE
5
3
100
AcDbSymbolTable
70
1
0
STYLE
5
11
100
AcDbSymbolTableRecord
100
AcDbTextStyleTableRecord
2
STANDARD
70
0
0
ENDTAB
0
TABLE
2
VIEW
5
6
100
AcDbSymbolTable
70
0
0
ENDTAB
0
TABLE
2
UCS
5
7
100
AcDbSymbolTable
70
0
0
ENDTAB
0
TABLE
2
APPID
5
9
100
AcDbSymbolTable
70
2
0
APPID
5
12
100
AcDbSymbolTableRecord
100
AcDbRegAppTableRecord
2
ACAD
70
0
0
ENDTAB
0
TABLE
2
DIMSTYLE
5
A
100
AcDbSymbolTable
70
1
0
ENDTAB
0
TABLE
2
BLOCK_RECORD
5
1
100
AcDbSymbolTable
70
1
0
BLOCK_RECORD
5
1F
100
AcDbSymbolTableRecord
100
AcDbBlockTableRecord
2
*MODEL_SPACE
0
BLOCK_RECORD
5
1B
100
AcDbSymbolTableRecord
100
AcDbBlockTableRecord
2
*PAPER_SPACE
0
ENDTAB
0
ENDSEC
0
SECTION
2
BLOCKS
0
BLOCK
5
20
100
AcDbEntity
100
AcDbBlockBegin
2
*MODEL_SPACE
0
ENDBLK
5
21
100
AcDbEntity
100
AcDbBlockEnd
0
BLOCK
5
1C
100
AcDbEntity
100
AcDbBlockBegin
2
*PAPER_SPACE
0
ENDBLK
5
1D
100
AcDbEntity
100
AcDbBlockEnd
0
ENDSEC
0
SECTION
2
ENTITIES
0
ELLIPSE
5
100
100
AcDbEntity
8
0
100
AcDbEllipse
10
16.238118183424746
20
-81.897940985126908
30
0
11
-1.0864270850033619e-16
21
0.831608479357962
31
0.0
40
0.99901246163380153
41
0
42
6.2831853071795862
0
ELLIPSE
5
101
100
AcDbEntity
8
0
100
AcDbEllipse
10
187.68239668452298
20
-81.897940985126894
30
0
11
-1.0864270850033619e-16
21
0.831608479357962
31
0.0
40
0.99901246163380153
41
0
42
6.2831853071795862
0
LINE
5
102
100
AcDbEntity
8
0
100
AcDbLine
10
207.18595456285749
20
-30.108286428596198
30
0
11
207.18595456285749
21
-30.037126776468021
31
1.1102230246251565e-15
0
SPLINE
5
103
100
AcDbEntity
8
0
100
AcDbSpline
70
0
71
3
72
11
73
7
74
0
42
0.000000001
43
0.0000000001
44
0.0000000001
40
-1.5707963267948959
40
-1.5707963267948959
40
-1.5707963267948959
40
-1.5707963267948959
40
-0.56831080787166544
40
-0.56831080787166544
40
-0.56831080787166544
40
-2.4529964190505001e-16
40
-2.4529964190505001e-16
40
-2.4529964190505001e-16
40
-2.4529964190505001e-16
10
207.18595456285749
20
-30.108286428596195
30
-1.9086480380638098e-32
10
207.18595456285749
20
-29.011310155221366
30
-8.7694086922896822e-18
10
206.59539369622627
20
-27.932096037038669
30
-1.7398120214775876e-17
10
205.67269776777772
20
-27.341982757865519
30
-2.2117896186970407e-17
10
205.14961981940021
20
-27.007446499643144
30
-2.4793545505687951e-17
10
204.53015898634817
20
-26.826271748641052
30
-2.6242998607228411e-17
10
203.90964886900068
20
-26.826271748641052
30
-2.6242998607228411e-17
0
LINE
5
104
100
AcDbEntity
8
0
100
AcDbLine
10
180.45673766768292
20
-26.826271748641052
30
0
11
203.9096488690007
21
-26.826271748641052
31
-2.6242998607228408e-17
0
SPLINE
5
105
100
AcDbEntity
8
0
100
AcDbSpline
70
0
71
3
72
11
73
7
74
0
42
0.000000001
43
0.0000000001
44
0.0000000001
40
3.1415926535897931
40
3.1415926535897931
40
3.1415926535897931
40
3.1415926535897931
40
4.2968819960102156
40
4.2968819960102156
40
4.2968819960102156
40
4.7123889803846897
40
4.7123889803846897
40
4.7123889803846897
40
4.7123889803846897
10
178.59726761789446
20
-24.9674338958399
30
1.1102230246251565e-15
10
178.59726761789446
20
-25.683355332114669
30
1.1102230246251565e-15
10
179.05113018883014
20
-26.37924757640608
30
1.1102230246251565e-15
10
179.7062340359528
20
-26.6681412242025
30
1.1102230246251565e-15
10
179.94184620164611
20
-26.77204361816845
30
1.1102230246251565e-15
10
180.19922894071163
20
-26.826271748641052
30
1.1102230246251565e-15
10
180.45673766768292
20
-26.826271748641052
30
1.1102230246251565e-15
0
LINE
5
106
100
AcDbEntity
8
0
100
AcDbLine
10
178.59726761789437
20
-11.005471828240392
30
0
11
178.59726761789446
21
-24.9674338958399
31
1.1102230246251565e-15
0
SPLINE
5
107
100
AcDbEntity
8
0
100
AcDbSpline
70
0
71
3
72
11
73
7
74
0
42
0.000000001
43
0.0000000001
44
0.0000000001
40
-1.5707963267948968
40
-1.5707963267948968
40
-1.5707963267948968
40
-1.5707963267948968
40
-0.56831080787166588
40
-0.56831080787166588
40
-0.56831080787166588
40
-2.4529964190504976e-16
40
-2.4529964190504976e-16
40
-2.4529964190504976e-16
40
-2.4529964190504976e-16
10
178.59726761789437
20
-11.005471828240392
30
0
10
178.59726761789437
20
-9.9084955548655671
30
0
10
178.00670675126321
20
-8.8292814366828658
30
0
10
177.08401082281461
20
-8.2391681575097167
30
0
10
176.56093287443713
20
-7.9046318992873443
30
0
10
175.94147204138508
20
-7.7234571482852505
30
0
10
175.32096192403759
20
-7.7234571482852505
30
0
0
LINE
5
108
100
AcDbEntity
8
0
100
AcDbLine
10
28.45325187927827
20
-7.7234571482852949
30
0
11
175.32096192403765
21
-7.7234571482852497
31
0
0
SPLINE
5
109
100
AcDbEntity
8
0
100
AcDbSpline
70
0
71
3
72
11
73
7
74
0
42
0.000000001
43
0.0000000001
44
0.0000000001
40
-2.4529964190505006e-16
40
-2.4529964190505006e-16
40
-2.4529964190505006e-16
40
-2.4529964190505006e-16
40
1.0024855189232331
40
1.0024855189232331
40
1.0024855189232331
40
1.5707963267948966
40
1.5707963267948966
40
1.5707963267948966
40
1.5707963267948966
10
28.45325187927827
20
-7.7234571482852949
30
7.1361592733621795e-49
10
27.358688132873723
20
-7.7234571482852949
30
-9.7213028614264272e-34
10
26.281522412802346
20
-8.3144132580038974
30
-1.9286636278686389e-33
10
25.692128611192615
20
-9.2387727698507245
30
-2.4518730399710476e-33
10
25.358000226069251
20
-9.7627938065892668
30
-2.7484813780120354e-33
10
25.176946185421507
20
-10.383594045100647
30
-2.909160085983503e-33
10
25.176946185421507
20
-11.005471828240406
30
-2.909160085983503e-33
0
LINE
5
110
100
AcDbEntity
8
0
100
AcDbLine
10
25.176946185421542
20
-24.967433895839921
30
1.1102230246251565e-15
11
25.176946185421507
21
-11.005471828240406
31
-2.909160085983503e-33
0
SPLINE
5
111
100
AcDbEntity
8
0
100
AcDbSpline
70
0
71
3
72
11
73
7
74
0
42
0.000000001
43
0.0000000001
44
0.0000000001
40
-1.5707963267949261
40
-1.5707963267949261
40
-1.5707963267949261
40
-1.5707963267949261
40
-0.41550698437450762
40
-0.41550698437450762
40
-0.41550698437450762
40
0
40
0
40
0
40
0
10
23.317476135632997
20
-26.826271748641112
30
1.119651856318357e-15
10
24.033461904916877
20
-26.826271748641133
30
1.119651856318357e-15
10
24.729591343683804
20
-26.372804382999181
30
1.1173510621231709e-15
10
25.018692528898892
20
-25.717839502192284
30
1.1140290086338014e-15
10
25.122669564985927
20
-25.482277316597184
30
1.1128342114720734e-15
10
25.176946185421542
20
-25.22491948504512
30
1.111528939766162e-15
10
25.176946185421542
20
-24.967433895839925
30
1.1102230246251565e-15
0
LINE
5
112
100
AcDbEntity
8
0
100
AcDbLine
10
-0.20734221314185752
20
-26.826271748641073
30
1.1102230246251565e-15
11
23.317476135632997
21
-26.826271748641112
31
1.119651856318357e-15
0
SPLINE
5
113
100
AcDbEntity
8
0
100
AcDbSpline
70
0
71
3
72
11
73
7
74
0
42
0.000000001
43
0.0000000001
44
0.0000000001
40
-2.4529964190505001e-16
40
-2.4529964190505001e-16
40
-2.4529964190505001e-16
40
-2.4529964190505001e-16
40
1.0024855189232302
40
1.0024855189232302
40
1.0024855189232302
40
1.5707963267948952
40
1.5707963267948952
40
1.5707963267948952
40
1.5707963267948952
10
-0.20734221314185641
20
-26.826271748641055
30
-2.6242998607228411e-17
10
-1.3019059595464111
20
-26.826271748641055
30
-2.6242998607228414e-17
10
-2.3790716796177986
20
-27.417227858359659
30
-2.1515178774614114e-17
10
-2.9684654812275379
20
-28.341587370206494
30
-1.4124221895785727e-17
10
-3.3025938663509082
20
-28.865608406945039
30
-9.9342754123061403e-18
10
-3.4836479069986552
20
-29.486408645456432
30
-4.9713932464830226e-18
10
-3.4836479069986561
20
-30.108286428596198
30
-3.6571406363910589e-32
0
LINE
5
114
100
AcDbEntity
8
0
100
AcDbLine
10
-3.4836479069986552
20
-81.926964700881484
30
0
11
-3.4836479069986552
21
-30.108286428596198
31
-3.6795630842599226e-32
0
SPLINE
5
115
100
AcDbEntity
8
0
100
AcDbSpline
70
0
71
3
72
11
73
7
74
0
42
0.000000001
43
0.0000000001
44
0.0000000001
40
-1.5707963267948923
40
-1.5707963267948923
40
-1.5707963267948923
40
-1.5707963267948923
40
-0.56831080787166144
40
-0.56831080787166144
40
-0.56831080787166144
40
-2.4529964190504976e-16
40
-2.4529964190504976e-16
40
-2.4529964190504976e-16
40
-2.4529964190504976e-16
10
-3.4836479069986552
20
-81.926964700881499
30
0
10
-3.4836479069986503
20
-83.02394097425632
30
0
10
-2.8930870403674618
20
-84.10315509243901
30
0
10
-1.9703911119188831
20
-84.693268371612163
30
0
10
-1.4473131635413958
20
-85.02780462983452
30
0
10
-0.82785233048933837
20
-85.208979380836624
30
0
10
-0.20734221314185708
20
-85.208979380836624
30
0
0
LINE
5
116
100
AcDbEntity
8
0
100
AcDbLine
10
203.90964886900076
20
-85.208979380836624
30
2.2204460492503131e-15
11
-0.20734221314185752
21
-85.20897938083661
31
0
0
SPLINE
5
117
100
AcDbEntity
8
0
100
AcDbSpline
70
0
71
3
72
11
73
7
74
0
42
0.000000001
43
0.0000000001
44
0.0000000001
40
0
40
0
40
0
40
0
40
1.0024855189232251
40
1.0024855189232251
40
1.0024855189232251
40
1.5707963267948919
40
1.5707963267948919
40
1.5707963267948919
40
1.5707963267948919
10
203.90964886900068
20
-85.208979380836652
30
2.6242998607228935e-17
10
205.00421261540527
20
-85.208979380836652
30
2.6242998607228929e-17
10
206.08137833547664
20
-84.618023271118048
30
2.1515178774614579e-17
10
206.6707721370864
20
-83.693663759271203
30
1.4124221895786106e-17
10
207.00490052220977
20
-83.169642722532643
30
9.9342754123064346e-18
10
207.18595456285755
20
-82.548842484021236
30
4.9713932464832074e-18
10
207.18595456285755
20
-81.926964700881456
30
1.0644186832504272e-31
0
LINE
5
118
100
AcDbEntity
8
0
100
AcDbLine
10
207.18595456285749
20
-30.108286428596198
30
0
11
207.18595456285755
21
-81.926964700881456
31
1.0709206858958949e-31
0
ELLIPSE
5
119
100
AcDbEntity
8
0
100
AcDbEllipse
10
-0.579303122284891
20
-29.554391976884553
30
0
11
-1.0864270850033619e-16
21
0.831608479357962
31
0.0
40
0.99901246163380164
41
0
42
6.2831853071795862
0
ELLIPSE
5
120
100
AcDbEntity
8
0
100
AcDbEllipse
10
204.33977549517263
20
-29.554391976884553
30
0
11
-1.0864270850033619e-16
21
0.831608479357962
31
0.0
40
0.99901246163380164
41
0
42
6.2831853071795862
0
ENDSEC
0
SECTION
2
OBJECTS
0
DICTIONARY
5
C
100
AcDbDictionary
3
ACAD_GROUP
350
D
3
ACAD_MLINESTYLE
350
17
0
DICTIONARY
5
D
100
AcDbDictionary
0
DICTIONARY
5
1A
330
C
100
AcDbDictionary
0
DICTIONARY
5
17
100
AcDbDictionary
0
ENDSEC
0
EOF
