0
SECTION
2
HEADER
9
$INSUNITS
70
4
9
$ACADVER
1
AC1014
9
$HANDSEED
5
FFFF
0
ENDSEC
0
SECTION
2
TABLES
0
TABLE
2
VPORT
5
8
100
AcDbSymbolTable
0
ENDTAB
0
TABLE
2
LTYPE
5
5
100
AcDbSymbolTable
0
LTYPE
5
14
100
AcDbSymbolTableRecord
100
AcDbLinetypeTableRecord
2
BYBLOCK
70
0
0
LTYPE
5
15
100
AcDbSymbolTableRecord
100
AcDbLinetypeTableRecord
2
BYLAYER
70
0
0
ENDTAB
0
TABLE
2
LAYER
5
2
100
AcDbSymbolTable
70
2
0
LAYER
5
50
100
AcDbSymbolTableRecord
100
AcDbLayerTableRecord
2
0
70
0
6
CONTINUOUS
0
ENDTAB
0
TABLE
2
STYLE
5
3
100
AcDbSymbolTable
70
1
0
STYLE
5
11
100
AcDbSymbolTableRecord
100
AcDbTextStyleTableRecord
2
STANDARD
70
0
0
ENDTAB
0
TABLE
2
VIEW
5
6
100
AcDbSymbolTable
70
0
0
ENDTAB
0
TABLE
2
UCS
5
7
100
AcDbSymbolTable
70
0
0
ENDTAB
0
TABLE
2
APPID
5
9
100
AcDbSymbolTable
70
2
0
APPID
5
12
100
AcDbSymbolTableRecord
100
AcDbRegAppTableRecord
2
ACAD
70
0
0
ENDTAB
0
TABLE
2
DIMSTYLE
5
A
100
AcDbSymbolTable
70
1
0
ENDTAB
0
TABLE
2
BLOCK_RECORD
5
1
100
AcDbSymbolTable
70
1
0
BLOCK_RECORD
5
1F
100
AcDbSymbolTableRecord
100
AcDbBlockTableRecord
2
*MODEL_SPACE
0
BLOCK_RECORD
5
1B
100
AcDbSymbolTableRecord
100
AcDbBlockTableRecord
2
*PAPER_SPACE
0
ENDTAB
0
ENDSEC
0
SECTION
2
BLOCKS
0
BLOCK
5
20
100
AcDbEntity
100
AcDbBlockBegin
2
*MODEL_SPACE
0
ENDBLK
5
21
100
AcDbEntity
100
AcDbBlockEnd
0
BLOCK
5
1C
100
AcDbEntity
100
AcDbBlockBegin
2
*PAPER_SPACE
0
ENDBLK
5
1D
100
AcDbEntity
100
AcDbBlockEnd
0
ENDSEC
0
SECTION
2
ENTITIES
0
LWPOLYLINE
5
100
100
AcDbEntity
8
0
100
AcDbPolyline
90
10
70
1
43
0.0
10
190.26502103853997
20
2.4830207977174488
42
0.41421356237309503
10
189.76502103854
20
2.9830207977174554
10
176.76502103854003
20
2.983020797717455
42
0.41421356237310542
10
176.26502103854006
20
2.4830207977174483
10
176.26502103854006
20
-0.0083270216684665707
10
176.26502103854006
20
-8.0083270216684443
10
176.26502103854006
20
-10.516979202282503
42
0.41421356237304302
10
176.76502103854003
20
-11.016979202282492
10
189.76502103854
20
-11.016979202282492
42
0.41421356237309503
10
190.26502103853997
20
-10.516979202282503
0
LWPOLYLINE
5
101
100
AcDbEntity
8
0
100
AcDbPolyline
90
8
70
1
43
0.0
10
263.58377103853974
20
22.033020797717388
42
-0.41421356237309503
10
264.08377103853968
20
21.533020797717381
10
264.08377103853968
20
8.5330207977174286
42
-0.41421356237311585
10
263.58377103853974
20
8.0330207977174233
10
250.58377103853968
20
8.0330207977174215
42
-0.41421356237306384
10
250.08377103853977
20
8.5330207977174268
10
250.08377103853971
20
21.533020797717381
42
-0.41421356237310542
10
250.58377103853968
20
22.03302079771737
0
LWPOLYLINE
5
102
100
AcDbEntity
8
0
100
AcDbPolyline
90
8
70
1
43
0.0
10
352.97752103853924
20
8.0330207977174251
42
-0.41421356237310542
10
352.47752103853929
20
8.5330207977174304
10
352.47752103853929
20
21.533020797717381
42
-0.41421356237311585
10
352.97752103853924
20
22.03302079771737
10
365.97752103853918
20
22.033020797717391
42
-0.41421356237309503
10
366.47752103853929
20
21.533020797717384
10
366.47752103853929
20
8.5330207977174304
42
-0.4142135623730534
10
365.97752103853918
20
8.0330207977174251
0
LWPOLYLINE
5
103
100
AcDbEntity
8
0
100
AcDbPolyline
90
8
70
1
43
0.0
10
335.02127103853934
20
27.083020797717353
10
322.0212710385394
20
27.083020797717353
42
-0.41421356237299095
10
321.52127103853945
20
27.58302079771736
10
321.52127103853945
20
40.583020797717289
42
-0.41421356237299095
10
322.0212710385394
20
41.083020797717296
10
335.02127103853934
20
41.083020797717317
42
-0.41421356237310542
10
335.52127103853945
20
40.583020797717289
10
335.52127103853945
20
27.583020797717342
42
-0.41421356237304302
0
LWPOLYLINE
5
104
100
AcDbEntity
8
0
100
AcDbPolyline
90
8
70
1
43
0.0
10
321.23377103853954
20
8.5330207977174304
42
-0.41421356237309503
10
320.73377103853943
20
8.0330207977174233
10
307.73377103853949
20
8.0330207977174233
42
-0.41421356237309503
10
307.23377103853954
20
8.5330207977174304
10
307.23377103853954
20
21.533020797717381
42
-0.41421356237315748
10
307.73377103853949
20
22.03302079771737
10
320.73377103853943
20
22.033020797717388
42
-0.41421356237307422
10
321.23377103853954
20
21.533020797717381
0
LWPOLYLINE
5
105
100
AcDbEntity
8
0
100
AcDbPolyline
90
8
70
1
43
0.0
10
370.57752103853932
20
8.0330207977173895
42
-0.41421356237298057
10
370.07752103853932
20
8.5330207977174304
10
370.07752103853932
20
21.533020797717384
42
-0.41421356237304302
10
370.57752103853932
20
22.033020797717377
10
371.5775210385392
20
22.033020797717391
42
-0.41421356237321988
10
372.0775210385392
20
21.533020797717384
10
372.0775210385392
20
8.5330207977174304
42
-0.4142135623730846
10
371.5775210385392
20
8.0330207977174073
0
LWPOLYLINE
5
106
100
AcDbEntity
8
0
100
AcDbPolyline
90
8
70
1
43
0.0
10
259.32127103853975
20
27.58302079771736
42
-0.41421356237309503
10
258.82127103853969
20
27.083020797717353
10
245.82127103853975
20
27.083020797717353
42
-0.41421356237309503
10
245.32127103853978
20
27.58302079771736
10
245.32127103853978
20
40.583020797717289
42
-0.41421356237309503
10
245.82127103853975
20
41.083020797717282
10
258.82127103853969
20
41.083020797717296
42
-0.41421356237309503
10
259.32127103853975
20
40.583020797717289
0
CIRCLE
5
107
100
AcDbEntity
8
0
100
AcDbCircle
10
373.88064603853923
20
-11.275979202282471
30
0
40
1.1499999999999844
210
0
220
0
230
1
0
CIRCLE
5
108
100
AcDbEntity
8
0
100
AcDbCircle
10
168.86227103854009
20
-11.275979202282475
30
0
40
1.1499999999999986
210
0
220
0
230
1
0
LWPOLYLINE
5
109
100
AcDbEntity
8
0
100
AcDbPolyline
90
8
70
1
43
0.0
10
207.72127103853992
20
27.083020797717353
42
-0.4142135623730846
10
207.2212710385399
20
27.583020797717342
10
207.2212710385399
20
40.58302079771731
42
-0.4142135623730846
10
207.72127103853992
20
41.083020797717282
10
220.7212710385399
20
41.083020797717296
42
-0.41421356237310542
10
221.22127103853987
20
40.583020797717289
10
221.22127103853987
20
27.583020797717342
42
-0.41421356237304302
10
220.7212710385399
20
27.083020797717353
0
LWPOLYLINE
5
110
100
AcDbEntity
8
0
100
AcDbPolyline
90
8
70
1
43
0.0
10
354.57127103853935
20
40.583020797717289
10
354.57127103853935
20
27.583020797717342
42
-0.41421356237306384
10
354.07127103853924
20
27.083020797717353
10
341.07127103853941
20
27.083020797717317
42
-0.41421356237298057
10
340.57127103853941
20
27.583020797717342
10
340.57127103853929
20
40.583020797717289
42
-0.41421356237304302
10
341.07127103853941
20
41.083020797717296
10
354.07127103853924
20
41.083020797717317
42
-0.41421356237325113
0
LWPOLYLINE
5
111
100
AcDbEntity
8
0
100
AcDbPolyline
90
8
70
1
43
0.0
10
206.93377103853993
20
21.533020797717381
10
206.93377103853993
20
8.5330207977174268
42
-0.41421356237315748
10
206.4337710385399
20
8.0330207977174197
10
193.43377103853999
20
8.0330207977174197
42
-0.41421356237309503
10
192.93377103853996
20
8.5330207977174268
10
192.93377103853996
20
21.533020797717377
42
-0.41421356237309503
10
193.43377103853999
20
22.033020797717366
10
206.4337710385399
20
22.033020797717388
42
-0.41421356237309503
0
LWPOLYLINE
5
112
100
AcDbEntity
8
0
100
AcDbPolyline
90
8
70
1
43
0.0
10
216.45877103853988
20
2.4830207977174492
10
216.45877103853988
20
-10.516979202282503
42
-0.41421356237309503
10
215.95877103853991
20
-11.016979202282492
10
202.95877103853994
20
-11.01697920228251
42
-0.41421356237309503
10
202.45877103853996
20
-10.516979202282503
10
202.45877103853996
20
2.4830207977174488
42
-0.41421356237309503
10
202.95877103853994
20
2.9830207977174554
10
215.95877103853991
20
2.9830207977174563
42
-0.41421356237309503
0
LWPOLYLINE
5
113
100
AcDbEntity
8
0
100
AcDbPolyline
90
8
70
1
43
0.0
10
277.87127103853965
20
41.083020797717296
42
-0.41421356237309503
10
278.37127103853965
20
40.583020797717289
10
278.37127103853965
20
27.583020797717342
42
-0.41421356237310542
10
277.87127103853965
20
27.083020797717353
10
264.8712710385397
20
27.083020797717353
42
-0.4142135623730846
10
264.3712710385397
20
27.58302079771736
10
264.37127103853965
20
40.58302079771731
42
-0.41421356237307422
10
264.8712710385397
20
41.083020797717296
0
LWPOLYLINE
5
114
100
AcDbEntity
8
0
100
AcDbPolyline
90
8
70
1
43
0.0
10
185.50252103853995
20
21.533020797717377
10
185.50252103853995
20
8.5330207977174268
42
-0.41421356237309503
10
185.00252103853998
20
8.0330207977174197
10
172.0025210385401
20
8.0330207977174197
42
-0.41421356237309503
10
171.50252103854004
20
8.5330207977174251
10
171.50252103854004
20
21.533020797717377
42
-0.41421356237313667
10
172.0025210385401
20
22.033020797717366
10
185.00252103853998
20
22.033020797717366
42
-0.41421356237309503
0
LWPOLYLINE
5
115
100
AcDbEntity
8
0
100
AcDbPolyline
90
8
70
1
43
0.0
10
292.65877103853956
20
-10.516979202282501
42
-0.4142135623730846
10
292.15877103853961
20
-11.01697920228249
10
279.15877103853961
20
-11.016979202282508
42
-0.41421356237309503
10
278.65877103853967
20
-10.516979202282501
10
278.65877103853967
20
2.483020797717451
42
-0.41421356237309503
10
279.15877103853961
20
2.9830207977174577
10
292.15877103853961
20
2.9830207977174581
42
-0.41421356237310542
10
292.65877103853956
20
2.4830207977174692
0
CIRCLE
5
116
100
AcDbEntity
8
0
100
AcDbCircle
10
185.64627103853996
20
41.083020797717296
30
0
40
1.1499999999999977
210
0
220
0
230
1
0
LWPOLYLINE
5
117
100
AcDbEntity
8
0
100
AcDbPolyline
90
8
70
1
43
0.0
10
282.63377103853958
20
8.0330207977174233
10
269.63377103853969
20
8.0330207977174233
42
-0.41421356237309503
10
269.13377103853963
20
8.5330207977174286
10
269.13377103853963
20
21.533020797717381
42
-0.41421356237315748
10
269.63377103853969
20
22.03302079771737
10
282.63377103853958
20
22.03302079771737
42
-0.41421356237309503
10
283.13377103853963
20
21.533020797717381
10
283.13377103853963
20
8.5330207977174286
42
-0.41421356237309503
0
LWPOLYLINE
5
118
100
AcDbEntity
8
0
100
AcDbPolyline
90
8
70
1
43
0.0
10
273.10877103853966
20
2.9830207977174754
42
-0.41421356237310542
10
273.6087710385396
20
2.4830207977174688
10
273.6087710385396
20
-10.516979202282501
42
-0.41421356237307422
10
273.10877103853966
20
-11.01697920228249
10
260.10877103853966
20
-11.016979202282508
42
-0.41421356237303258
10
259.60877103853971
20
-10.516979202282501
10
259.60877103853971
20
2.4830207977174505
42
-0.41421356237304302
10
260.10877103853966
20
2.9830207977174572
0
LWPOLYLINE
5
119
100
AcDbEntity
8
0
100
AcDbPolyline
90
8
70
1
43
0.0
10
297.70877103853957
20
2.4830207977174692
42
-0.4142135623730846
10
298.20877103853957
20
2.9830207977174581
10
311.20877103853951
20
2.983020797717459
42
-0.41421356237303258
10
311.70877103853951
20
2.4830207977174519
10
311.70877103853951
20
-10.516979202282501
42
-0.4142135623730846
10
311.20877103853951
20
-11.01697920228249
10
298.20877103853957
20
-11.016979202282508
42
-0.41421356237309503
10
297.70877103853957
20
-10.516979202282501
0
LWPOLYLINE
5
120
100
AcDbEntity
8
0
100
AcDbPolyline
90
8
70
1
43
0.0
10
302.97127103853956
20
27.083020797717353
42
-0.41421356237307422
10
302.4712710385395
20
27.58302079771736
10
302.4712710385395
20
40.58302079771731
42
-0.41421356237306384
10
302.97127103853956
20
41.083020797717296
10
315.97127103853944
20
41.083020797717296
42
-0.41421356237309503
10
316.4712710385395
20
40.583020797717289
10
316.4712710385395
20
27.583020797717342
42
-0.41421356237314705
10
315.97127103853944
20
27.083020797717353
0
LWPOLYLINE
5
121
100
AcDbEntity
8
0
100
AcDbPolyline
90
8
70
1
43
0.0
10
330.25877103853941
20
2.9830207977174239
42
-0.4142135623732095
10
330.75877103853941
20
2.4830207977174705
10
330.75877103853941
20
-10.516979202282499
42
-0.41421356237309503
10
330.25877103853941
20
-11.016979202282506
10
317.25877103853952
20
-11.016979202282506
42
-0.41421356237309503
10
316.75877103853946
20
-10.516979202282499
10
316.75877103853946
20
2.4830207977174519
42
-0.41421356237309503
10
317.25877103853952
20
2.983020797717459
0
LWPOLYLINE
5
122
100
AcDbEntity
8
0
100
AcDbPolyline
90
8
70
1
43
0.0
10
357.74002103853934
20
2.9830207977174599
10
370.74002103853928
20
2.9830207977174608
42
-0.4142135623732407
10
371.24002103853923
20
2.4830207977174537
10
371.2400210385394
20
-10.516979202282499
42
-0.41421356237307422
10
370.74002103853928
20
-11.016979202282489
10
357.74002103853934
20
-11.016979202282453
42
-0.41421356237310542
10
357.24002103853934
20
-10.516979202282499
10
357.24002103853934
20
2.483020797717471
42
-0.41421356237298057
0
LWPOLYLINE
5
123
100
AcDbEntity
8
0
100
AcDbPolyline
90
8
70
1
43
0.0
10
231.53377103853981
20
8.0330207977174215
42
-0.41421356237309503
10
231.03377103853984
20
8.5330207977174268
10
231.03377103853984
20
21.533020797717381
42
-0.4142135623730846
10
231.53377103853981
20
22.03302079771737
10
244.53377103853978
20
22.03302079771737
42
-0.4142135623730846
10
245.03377103853975
20
21.533020797717381
10
245.03377103853975
20
8.5330207977174268
42
-0.41421356237309503
10
244.53377103853978
20
8.0330207977174215
0
ARC
5
124
100
AcDbEntity
8
0
100
AcDbCircle
10
-344.54627103853937
20
-29.566979202282432
30
0
40
0.49999999999997158
210
0
220
0
230
-1
100
AcDbArc
50
180
51
187.75483056771054
0
ARC
5
125
100
AcDbEntity
8
0
100
AcDbCircle
10
-198.19627103853992
20
-16.566979202282447
30
0
40
0.49999999999998485
210
0
220
0
230
-1
100
AcDbArc
50
76.868850102829811
51
90
0
LINE
5
126
100
AcDbEntity
8
0
100
AcDbLine
10
197.69627103853995
20
-29.566979202282397
30
0
11
197.69627103853995
21
-16.566979202282447
31
0
0
LWPOLYLINE
5
127
100
AcDbEntity
8
0
100
AcDbPolyline
90
8
70
1
43
0.0
10
349.30877103853948
20
-11.016979202282489
10
336.30877103853936
20
-11.016979202282506
42
-0.41421356237315748
10
335.80877103853936
20
-10.516979202282499
10
335.80877103853936
20
2.4830207977174528
42
-0.41421356237307422
10
336.30877103853936
20
2.9830207977174594
10
349.30877103853948
20
2.9830207977174243
42
-0.41421356237310542
10
349.80877103853942
20
2.4830207977174532
10
349.80877103853942
20
-10.516979202282499
42
-0.4142135623730846
0
LINE
5
128
100
AcDbEntity
8
0
100
AcDbLine
10
227.74627103853985
20
-16.066979202282475
30
0
11
229.23952103853981
21
-16.066979202282475
31
0
0
LWPOLYLINE
5
129
100
AcDbEntity
8
0
100
AcDbPolyline
90
8
70
1
43
0.0
10
347.37752103853938
20
8.0330207977173895
42
-0.41421356237298057
10
346.87752103853938
20
8.5330207977174304
10
346.87752103853938
20
21.533020797717381
42
-0.41421356237304302
10
347.37752103853938
20
22.03302079771737
10
348.37752103853927
20
22.033020797717388
42
-0.41421356237310542
10
348.87752103853938
20
21.533020797717363
10
348.87752103853938
20
8.5330207977174304
42
-0.4142135623730534
10
348.37752103853927
20
8.0330207977174251
0
LWPOLYLINE
5
130
100
AcDbEntity
8
0
100
AcDbPolyline
90
8
70
1
43
0.0
10
373.62127103853925
20
27.583020797717346
42
-0.41421356237295975
10
373.12127103853925
20
27.083020797717321
10
360.12127103853942
20
27.083020797717321
42
-0.41421356237306384
10
359.62127103853931
20
27.583020797717346
10
359.62127103853931
20
40.583020797717289
42
-0.41421356237307422
10
360.12127103853942
20
41.083020797717296
10
373.12127103853925
20
41.083020797717317
42
-0.41421356237310542
10
373.62127103853925
20
40.583020797717289
0
LWPOLYLINE
5
131
100
AcDbEntity
8
0
100
AcDbPolyline
90
8
70
1
43
0.0
10
212.48377103853986
20
8.0330207977174197
42
-0.41421356237309503
10
211.98377103853989
20
8.5330207977174268
10
211.98377103853989
20
21.533020797717381
42
-0.41421356237309503
10
212.48377103853986
20
22.03302079771737
10
225.48377103853983
20
22.03302079771737
42
-0.4142135623730846
10
225.9837710385398
20
21.533020797717381
10
225.9837710385398
20
8.5330207977174268
42
-0.41421356237309503
10
225.48377103853983
20
8.0330207977174215
0
LWPOLYLINE
5
132
100
AcDbEntity
8
0
100
AcDbPolyline
90
8
70
1
43
0.0
10
296.92127103853954
20
41.083020797717296
42
-0.41421356237309503
10
297.42127103853954
20
40.583020797717289
10
297.42127103853954
20
27.583020797717342
42
-0.41421356237314705
10
296.92127103853954
20
27.083020797717353
10
283.9212710385396
20
27.083020797717353
42
-0.4142135623730846
10
283.42127103853966
20
27.58302079771736
10
283.4212710385396
20
40.58302079771731
42
-0.4142135623730846
10
283.9212710385396
20
41.083020797717282
0
LWPOLYLINE
5
133
100
AcDbEntity
8
0
100
AcDbPolyline
90
8
70
1
43
0.0
10
235.50877103853981
20
-10.516979202282501
42
-0.41421356237313794
10
235.00877103853978
20
-11.016979202282474
10
222.00877103853986
20
-11.01697920228251
42
-0.41421356237309503
10
221.50877103853989
20
-10.516979202282503
10
221.50877103853989
20
2.483020797717467
42
-0.4142135623730846
10
222.00877103853986
20
2.9830207977174563
10
235.00877103853978
20
2.9830207977174568
42
-0.41421356237309503
10
235.50877103853981
20
2.4830207977174497
0
LWPOLYLINE
5
134
100
AcDbEntity
8
0
100
AcDbPolyline
90
8
70
1
43
0.0
10
202.17127103853994
20
27.58302079771736
42
-0.41421356237309503
10
201.67127103853997
20
27.083020797717353
10
188.67127103854
20
27.083020797717346
42
-0.41421356237310542
10
188.17127103854003
20
27.583020797717353
10
188.17127103854003
20
40.58302079771731
42
-0.4142135623730846
10
188.67127103854
20
41.083020797717296
10
201.67127103853997
20
41.083020797717296
42
-0.41421356237309503
10
202.17127103853994
20
40.583020797717289
0
LWPOLYLINE
5
135
100
AcDbEntity
8
0
100
AcDbPolyline
90
8
70
1
43
0.0
10
288.18377103853959
20
8.5330207977174286
10
288.18377103853959
20
21.533020797717381
42
-0.41421356237315748
10
288.68377103853965
20
22.03302079771737
10
301.68377103853953
20
22.03302079771737
42
-0.41421356237309503
10
302.18377103853959
20
21.533020797717381
10
302.18377103853959
20
8.5330207977174304
42
-0.41421356237309503
10
301.68377103853953
20
8.0330207977174055
10
288.68377103853965
20
8.0330207977174233
42
-0.41421356237309503
0
LINE
5
136
100
AcDbEntity
8
0
100
AcDbLine
10
284.89627103853957
20
-16.066979202282457
30
0
11
286.4212710385396
21
-16.06697920228244
31
0
0
LWPOLYLINE
5
137
100
AcDbEntity
8
0
100
AcDbPolyline
90
8
70
1
43
0.0
10
240.55877103853976
20
-10.516979202282501
10
240.55877103853976
20
2.4830207977174497
42
-0.41421356237309503
10
241.05877103853982
20
2.9830207977174568
10
254.0587710385397
20
2.9830207977174572
42
-0.41421356237307422
10
254.55877103853976
20
2.4830207977174505
10
254.55877103853976
20
-10.516979202282501
42
-0.41421356237309503
10
254.0587710385397
20
-11.01697920228249
10
241.05877103853982
20
-11.016979202282473
42
-0.41421356237313667
0
CIRCLE
5
138
100
AcDbEntity
8
0
100
AcDbCircle
10
357.09627103853933
20
41.083020797717296
30
0
40
1.1499999999999844
210
0
220
0
230
1
0
LWPOLYLINE
5
139
100
AcDbEntity
8
0
100
AcDbPolyline
90
8
70
1
43
0.0
10
169.62127103854004
20
27.083020797717346
42
-0.41421356237309503
10
169.12127103854007
20
27.583020797717353
10
169.12127103854007
20
40.583020797717289
42
-0.41421356237309503
10
169.62127103854004
20
41.083020797717296
10
182.62127103854002
20
41.083020797717296
42
-0.41421356237309503
10
183.12127103853999
20
40.583020797717289
10
183.12127103853999
20
27.583020797717339
42
-0.4142135623730846
10
182.62127103854002
20
27.083020797717346
0
LWPOLYLINE
5
140
100
AcDbEntity
8
0
100
AcDbPolyline
90
16
70
1
43
0.0
10
373.62127103853925
20
-14.11697920228249
10
349.34627103853927
20
-14.11697920228249
42
0.41421356237309936
10
348.14627103853934
20
-15.316979202282479
10
348.14627103853934
20
-30.06697920228244
42
-0.41421356237309842
10
345.04627103853949
20
-33.166979202282427
10
197.69627103853995
20
-33.166979202282427
42
-0.41421356237309293
10
194.59627103854001
20
-30.066979202282443
10
194.59627103854001
20
-15.316979202282484
42
0.41421356237311674
10
193.39627103853996
20
-14.116979202282494
10
169.12127103854007
20
-14.116979202282494
42
-0.41421356237309331
10
166.02127103854005
20
-11.016979202282492
10
166.02127103854005
20
41.083020797717296
42
-0.41421356237309503
10
169.12127103854007
20
44.18302079771729
10
373.62127103853925
20
44.18302079771729
42
-0.4142135623731118
10
376.72127103853927
20
41.083020797717296
10
376.72127103853927
20
-11.016979202282489
42
-0.4142135623731118
0
LWPOLYLINE
5
141
100
AcDbEntity
8
0
100
AcDbPolyline
90
8
70
1
43
0.0
10
339.78377103853944
20
8.0330207977174251
10
326.7837710385395
20
8.0330207977174233
42
-0.41421356237309503
10
326.28377103853938
20
8.5330207977174304
10
326.28377103853938
20
21.533020797717381
42
-0.4142135623731783
10
326.7837710385395
20
22.03302079771737
10
339.78377103853944
20
22.033020797717388
42
-0.41421356237310542
10
340.28377103853938
20
21.533020797717363
10
340.28377103853938
20
8.5330207977174304
42
-0.41421356237297013
0
LWPOLYLINE
5
142
100
AcDbEntity
8
0
100
AcDbPolyline
90
8
70
1
43
0.0
10
226.77127103853979
20
27.083020797717335
42
-0.41421356237309503
10
226.27127103853982
20
27.583020797717342
10
226.27127103853982
20
40.583020797717289
42
-0.41421356237309503
10
226.77127103853979
20
41.083020797717282
10
239.77127103853977
20
41.083020797717296
42
-0.41421356237310542
10
240.27127103853974
20
40.583020797717289
10
240.27127103853974
20
27.583020797717342
42
-0.4142135623730846
10
239.77127103853977
20
27.083020797717353
0
LINE
5
143
100
AcDbEntity
8
0
100
AcDbLine
10
222.00877103853986
20
2.9830207977174563
30
0
11
235.00877103853978
21
2.9830207977174568
31
0
0
LWPOLYLINE
5
144
100
AcDbEntity
8
0
100
AcDbPolyline
90
36
70
1
43
0.0
10
262.5660983008778
20
-29.850782902172412
10
262.5660983008778
20
-31.049672902172418
10
265.86669830087783
20
-31.049672902172418
10
265.86669830087783
20
-29.850782902172412
10
267.59079830087779
20
-29.850782902172412
10
267.59079830087779
20
-23.580712902172451
10
268.41589830087781
20
-23.580712902172451
10
268.41589830087781
20
-20.78055290217247
10
267.59079830087779
20
-20.78055290217247
10
267.59079830087779
20
-17.550352902172481
10
260.84109830087777
20
-17.550352902172463
10
260.84109830087777
20
-20.78055290217247
10
259.31669830087782
20
-20.78055290217247
10
259.31669830087782
20
-16.080052902172476
10
245.31599830087788
20
-16.080052902172476
10
245.31599830087788
20
-20.78055290217247
10
243.79199830087788
20
-20.78055290217247
10
243.79199830087788
20
-17.550352902172481
10
237.04089830087793
20
-17.550352902172463
10
237.04089830087793
20
-20.78055290217247
10
236.21679830087788
20
-20.78055290217247
10
236.21679830087788
20
-23.580712902172451
10
237.04089830087793
20
-23.580712902172451
10
237.04089830087793
20
-29.850782902172412
10
238.76599830087787
20
-29.850782902172412
10
238.76599830087787
20
-31.049672902172418
10
242.0665983008779
20
-31.049672902172418
10
242.0665983008779
20
-29.850782902172412
10
243.79199830087788
20
-29.850782902172412
10
243.79199830087788
20
-25.381822902172445
10
245.31599830087788
20
-25.381822902172445
10
245.31599830087788
20
-30.080912902172415
10
259.31669830087782
20
-30.080912902172415
10
259.31669830087782
20
-25.381822902172445
10
260.84109830087777
20
-25.381822902172445
10
260.84109830087777
20
-29.850782902172426
0
LWPOLYLINE
5
145
100
AcDbEntity
8
0
100
AcDbPolyline
90
36
70
1
43
0.0
10
283.41599830087767
20
-20.78055290217247
10
281.89199830087767
20
-20.78055290217247
10
281.89199830087767
20
-17.550352902172463
10
275.14089830087778
20
-17.550352902172463
10
275.14089830087778
20
-20.78055290217247
10
274.31679830087779
20
-20.78055290217247
10
274.31679830087779
20
-23.580712902172451
10
275.14089830087778
20
-23.580712902172451
10
275.14089830087778
20
-29.850782902172412
10
276.86599830087778
20
-29.850782902172412
10
276.86599830087778
20
-31.049672902172418
10
280.16659830087769
20
-31.049672902172418
10
280.16659830087769
20
-29.850782902172412
10
281.89199830087767
20
-29.850782902172412
10
281.89199830087767
20
-25.381822902172445
10
283.41599830087767
20
-25.381822902172445
10
283.41599830087767
20
-30.080912902172415
10
297.41669830087767
20
-30.080912902172415
10
297.41669830087767
20
-25.381822902172445
10
298.94069830087767
20
-25.381822902172445
10
298.94069830087767
20
-29.850782902172412
10
300.66569830087764
20
-29.850782902172412
10
300.66569830087764
20
-31.049672902172418
10
303.96669830087762
20
-31.049672902172418
10
303.96669830087762
20
-29.850782902172412
10
305.69069830087761
20
-29.850782902172412
10
305.69069830087761
20
-23.580712902172433
10
306.5156983008776
20
-23.580712902172451
10
306.5156983008776
20
-20.78055290217247
10
305.69069830087761
20
-20.78055290217247
10
305.69069830087761
20
-17.550352902172463
10
298.94069830087767
20
-17.550352902172463
10
298.94069830087767
20
-20.780552902172452
10
297.41669830087767
20
-20.78055290217247
10
297.41669830087767
20
-16.080052902172476
10
283.41599830087767
20
-16.080052902172476
0
LWPOLYLINE
5
146
100
AcDbEntity
8
0
100
AcDbPolyline
90
4
70
1
43
0.0
10
211.69189830087805
20
-16.080052902172476
10
211.69189830087805
20
-30.080912902172415
10
197.69096830087807
20
-30.080912902172415
10
197.69096830087807
20
-16.080052902172476
0
LWPOLYLINE
5
147
100
AcDbEntity
8
0
100
AcDbPolyline
90
4
70
1
43
0.0
10
325.99169830087749
20
-30.080912902172415
10
311.99069830087763
20
-30.080912902172415
10
311.99069830087763
20
-16.080052902172476
10
325.99169830087749
20
-16.080052902172472
0
LWPOLYLINE
5
148
100
AcDbEntity
8
0
100
AcDbPolyline
90
4
70
1
43
0.0
10
216.740998300878
20
-16.080052902172476
10
230.74169830087794
20
-16.080052902172476
10
230.74169830087794
20
-30.080912902172415
10
216.740998300878
20
-30.080912902172415
0
LWPOLYLINE
5
149
100
AcDbEntity
8
0
100
AcDbPolyline
90
4
70
1
43
0.0
10
345.04169830087744
20
-16.080052902172472
10
345.04169830087744
20
-30.080912902172415
10
331.04269830087759
20
-30.080912902172415
10
331.04269830087759
20
-16.080052902172472
0
ARC
5
150
100
AcDbEntity
8
0
100
AcDbCircle
10
-344.54627103853937
20
-16.566979202282372
30
0
40
0.49999999999993605
210
0
220
0
230
-1
100
AcDbArc
50
90
51
103.13114989718474
0
ARC
5
151
100
AcDbEntity
8
0
100
AcDbCircle
10
-344.54627103853937
20
-16.566979202282372
30
0
40
0.49999999999996181
210
0
220
0
230
-1
100
AcDbArc
50
172.24516943228895
51
180
0
ENDSEC
0
SECTION
2
OBJECTS
0
DICTIONARY
5
C
100
AcDbDictionary
3
ACAD_GROUP
350
D
3
ACAD_MLINESTYLE
350
17
0
DICTIONARY
5
D
100
AcDbDictionary
0
DICTIONARY
5
1A
330
C
100
AcDbDictionary
0
DICTIONARY
5
17
100
AcDbDictionary
0
ENDSEC
0
EOF
